<?xml version="1.0" encoding="UTF-8" standalone="no"?>
<!-- Created with Inkscape (http://www.inkscape.org/) -->

<svg
   xmlns:dc="http://purl.org/dc/elements/1.1/"
   xmlns:cc="http://creativecommons.org/ns#"
   xmlns:rdf="http://www.w3.org/1999/02/22-rdf-syntax-ns#"
   xmlns:svg="http://www.w3.org/2000/svg"
   xmlns="http://www.w3.org/2000/svg"
   version="1.1"
   width="184.09"
   height="93.360001"
   id="svg3711">
  <defs
     id="defs3713" />
  <metadata
     id="metadata3716">
    <rdf:RDF>
      <cc:Work
         rdf:about="">
        <dc:format>image/svg+xml</dc:format>
        <dc:type
           rdf:resource="http://purl.org/dc/dcmitype/StillImage" />
        <dc:title></dc:title>
      </cc:Work>
    </rdf:RDF>
  </metadata>
  <g
     transform="translate(0,-959.00212)"
     id="layer1">
    <path
       d="m 0.73519118,1051.6113 91.64549982,0 0,-91.63836 -91.64549982,0 0,91.63836 z"
       id="path666"
       style="fill:#ff0000;fill-opacity:1;fill-rule:nonzero;stroke:none" />
    <path
       d="m 183.44899,1051.6113 -91.634867,0 0,-91.63667 91.634867,0 0,91.63667 z"
       id="path670"
       style="fill:#ff0000;fill-opacity:1;fill-rule:nonzero;stroke:none" />
    <path
       d="m 46.557321,969.38607 c 13.02375,0 26.94012,23.28237 26.94012,43.44453 0,15.8388 -9.309,29.3481 -26.94012,29.3481 -17.64325,0 -26.93025,-13.5093 -26.93025,-29.3481 0,-20.16216 13.905,-43.44453 26.93025,-43.44453"
       id="path668"
       style="fill:#ffffff;fill-opacity:1;fill-rule:nonzero;stroke:none" />
    <path
       d="m 98.522241,994.71728 9.648129,0 3.15212,12.94232 0.051,0 3.15675,-12.94232 9.64063,0 0,21.99832 -6.4105,0 0,-14.1194 -0.0681,0 -3.81462,14.1194 -5.0585,0 -3.8225,-14.1194 -0.0556,0 0,14.1194 -6.418749,0 0,-21.99832 z"
       id="path672"
       style="fill:#ffffff;fill-opacity:1;fill-rule:nonzero;stroke:none" />
    <path
       d="m 134.03124,1000.35 -6.16012,0 0,-5.63272 19.11012,0 0,5.63272 -6.17562,0 0,16.3656 -6.77438,0 0,-16.3656 z"
       id="path674"
       style="fill:#ffffff;fill-opacity:1;fill-rule:nonzero;stroke:none" />
    <path
       d="m 156.00437,1009.3221 c 0,0.5542 0.0939,1.0467 0.24625,1.4463 0.4935,1.3263 1.97388,1.6024 3.235,1.6024 1.11012,0 2.80412,-0.37 2.80412,-2.002 0,-1.1402 -0.9545,-1.4485 -4.74337,-2.5264 -3.48275,-0.9847 -7.45688,-1.9407 -7.45688,-6.3773 0,-5.08395 4.34413,-7.27195 8.87313,-7.27195 4.77675,0 8.9965,1.8185 9.18175,7.17945 l -6.40838,0 c 0.12363,-0.8316 -0.247,-1.38645 -0.80112,-1.75607 -0.55525,-0.40075 -1.32563,-0.55625 -2.00238,-0.55625 -0.92375,0 -2.43425,0.24837 -2.43425,1.48072 0.124,1.5716 3.26513,1.9103 6.378,2.7721 3.11175,0.8623 6.19263,2.3105 6.19263,6.3473 0,5.7318 -5.26863,7.5795 -10.1675,7.5795 -2.49488,0 -9.613,-0.8942 -9.67475,-7.9178 l 6.77775,0 z"
       id="path676"
       style="fill:#ffffff;fill-opacity:1;fill-rule:nonzero;stroke:none" />
  </g>
</svg>
